<?xml version="1.0" encoding="UTF-8"?>
<svg version="1.1" xmlns="http://www.w3.org/2000/svg" width="915" height="239">
<path d="M0 0 C0.95003906 -0.00515625 1.90007812 -0.0103125 2.87890625 -0.015625 C5.4375 0.25 5.4375 0.25 8.4375 2.25 C8.4375 2.91 8.4375 3.57 8.4375 4.25 C9.4275 4.58 10.4175 4.91 11.4375 5.25 C13.52208187 16.02033969 9.49687285 23.33220289 3.625 32.25390625 C-0.73522754 38.22586076 -5.65702682 43.72463293 -10.5625 49.25 C-11.91759292 50.79085258 -13.27195127 52.33235208 -14.625 53.875 C-15.13160156 54.44476563 -15.63820313 55.01453125 -16.16015625 55.6015625 C-17.71253804 57.42636784 -19.14291095 59.32070686 -20.5625 61.25 C-20.0984375 60.96125 -19.634375 60.6725 -19.15625 60.375 C-13.89974553 57.55060954 -9.12662465 56.76364995 -3.25 56.625 C-2.55648437 56.59019531 -1.86296875 56.55539063 -1.1484375 56.51953125 C0.86328125 56.5234375 0.86328125 56.5234375 4.4375 57.25 C8.76546755 61.9997024 9.10497474 65.91572718 8.890625 72.0859375 C7.82736637 79.51041589 4.10173605 85.68592011 -0.3671875 91.57421875 C-3.9952754 96.6606557 -6.05877393 102.23509571 -7.5625 108.25 C0.05198317 108.10899105 4.81170697 105.30780431 10.4375 100.25 C15.00303269 95.05324783 18.50625297 89.15828409 22.09887695 83.27368164 C33.82364666 64.10625155 33.82364666 64.10625155 42.4375 61.25 C42.4375 60.59 42.4375 59.93 42.4375 59.25 C43.613125 58.816875 44.78875 58.38375 46 57.9375 C52.82110369 55.3953313 52.82110369 55.3953313 59.33984375 52.18359375 C63.70237785 50.24198174 69.04498252 50.37259283 73.50390625 52.0078125 C78.0000226 54.47436445 81.57862574 57.14269066 83.53125 61.93359375 C84.52728262 65.57855794 84.66947977 68.66480656 84.625 72.4375 C84.61533203 74.25314453 84.61533203 74.25314453 84.60546875 76.10546875 C84.4375 79.25 84.4375 79.25 83.4375 82.25 C93.64884924 76.59923556 99.59911145 70.31359053 103.4375 59.25 C103.1075 58.59 102.7775 57.93 102.4375 57.25 C102.0630589 52.28865547 102.19851867 49.13677759 105.4375 45.25 C108.98273608 42.83279358 110.87354194 42.2312014 115.1875 42.375 C118.4375 43.25 118.4375 43.25 120.4375 46.25 C120.10424962 49.44920361 119.45463841 52.19858478 118.4375 55.25 C119.16195313 55.42015625 119.88640625 55.5903125 120.6328125 55.765625 C126.32236028 57.19180498 130.8667887 58.52126184 135.4375 62.25 C137.5127928 66.40058559 137.1608253 70.76021651 136.4375 75.25 C134.59652408 80.15546546 131.95092421 84.71334499 129.45947266 89.31054688 C127.97505684 92.12760354 126.68839371 95.01033661 125.4375 97.9375 C125.045625 98.84886719 124.65375 99.76023437 124.25 100.69921875 C123.40097962 103.36465293 123.27728527 105.47127574 123.4375 108.25 C132.1609068 107.66409954 136.85551666 102.41045438 142.4375 96.25 C148.74904852 88.79734621 153.90043064 80.96998334 158.03515625 72.11328125 C160.91366384 66.23599416 164.37119945 59.54098279 169.4375 55.25 C174.77396866 53.47117711 179.39008476 53.80276837 184.4375 56.25 C183.84398466 60.69718534 182.04359572 64.14710274 179.875 68 C169.52024891 86.45578897 169.52024891 86.45578897 162.4375 106.25 C163.0975 107.24 163.7575 108.23 164.4375 109.25 C167.46169525 108.66196203 170.45508453 108.02321882 173.4375 107.25 C173.4375 106.59 173.4375 105.93 173.4375 105.25 C174.828125 103.91796875 174.828125 103.91796875 176.6875 102.4375 C181.94844613 98.05162106 185.36949024 92.9133366 188.97265625 87.140625 C190.4375 85.25 190.4375 85.25 193.4375 84.25 C195.0625 85.875 195.0625 85.875 196.4375 88.25 C195.29267169 96.26379817 188.19228389 103.94954116 182.4375 109.25 C181.674375 110.054375 180.91125 110.85875 180.125 111.6875 C173.78389321 117.73367159 168.01587313 122.18176211 159 122.5625 C153.34477969 122.41017083 149.11789167 120.93039167 145.0625 116.875 C143.41217642 114.20909268 142.95746332 112.29841241 142.4375 109.25 C141.880625 109.78109375 141.32375 110.3121875 140.75 110.859375 C132.6983435 118.31259757 125.72268925 122.6214419 114.5 122.47265625 C111.01330861 122.09625207 108.52507888 120.91729259 105.4375 119.25 C101.95208231 114.02187347 102.32813908 107.31294644 103.4375 101.25 C105.36118354 95.56779421 108.40883545 90.40203675 111.4375 85.25 C112.15735657 83.9823986 112.87614232 82.71418838 113.59375 81.4453125 C114.73332322 79.47037417 115.92270953 77.5221857 117.1875 75.625 C118.60041133 72.94046846 118.69380085 71.24017656 118.4375 68.25 C115.7975 67.59 113.1575 66.93 110.4375 66.25 C110.15777344 66.806875 109.87804687 67.36375 109.58984375 67.9375 C103.76767184 79.02021952 95.89062721 87.38453315 83.75 91.5 C79.29727559 93.8523827 77.47724188 97.10114621 74.66015625 101.19921875 C67.98409289 110.36267303 59.30878627 118.86666936 48.08203125 121.8828125 C44.70579239 122.35159603 41.40855493 122.458809 38 122.5 C36.08380859 122.53867188 36.08380859 122.53867188 34.12890625 122.578125 C28.66200398 122.09217813 24.69440519 120.11231593 21.0625 116 C18.68974184 113.10202193 18.43900935 112.26584815 18.0625 108.3125 C18.248125 106.7965625 18.248125 106.7965625 18.4375 105.25 C17.77363281 105.78109375 17.10976563 106.3121875 16.42578125 106.859375 C13.76302083 108.98958333 11.10026042 111.11979167 8.4375 113.25 C7.58542969 113.95253906 6.73335937 114.65507812 5.85546875 115.37890625 C-1.37797957 120.97635656 -9.48917522 122.60259034 -18.5625 122.25 C-21.34803134 121.35283168 -23.16316723 120.59425239 -25.375 118.6875 C-27.60667412 114.10669522 -27.25215648 109.53824483 -25.80078125 104.72265625 C-24.80979344 102.18055709 -23.72818572 99.71663872 -22.5625 97.25 C-22.21574219 96.51265625 -21.86898437 95.7753125 -21.51171875 95.015625 C-19.70519207 91.30492154 -17.68569183 87.78865306 -15.5625 84.25 C-12.81630498 79.46662758 -10.99398801 75.93511993 -11.5625 70.25 C-22.1656678 70.96301128 -28.93015901 77.07174748 -35.875 84.6875 C-41.8280963 92.18840134 -45.64842946 100.37778216 -49.02709961 109.27294922 C-50.67395541 113.51078663 -52.35261455 116.91958526 -55.5625 120.25 C-58.6770216 121.28817387 -61.35955268 121.59725843 -64.625 121.875 C-65.68847656 121.97039062 -66.75195312 122.06578125 -67.84765625 122.1640625 C-70.5625 122.25 -70.5625 122.25 -72.5625 121.25 C-71.76896205 117.54682289 -70.26575528 114.57377464 -68.5 111.25 C-67.56749339 109.26065256 -67.02175984 107.39321257 -66.5625 105.25 C-67.56216797 105.88615234 -67.56216797 105.88615234 -68.58203125 106.53515625 C-70.52480948 107.77146967 -72.46892001 109.00569096 -74.4140625 110.23828125 C-76.43972795 111.53259602 -78.45623974 112.84140999 -80.4609375 114.16796875 C-89.04273529 119.80503201 -98.17376247 124.8643275 -108.8359375 122.8125 C-113.36174921 121.33193706 -116.11034782 119.46770176 -118.5625 115.25 C-118.9383859 113.25755906 -119.27730648 111.25743014 -119.5625 109.25 C-120.52349609 110.04664063 -120.52349609 110.04664063 -121.50390625 110.859375 C-134.71173291 121.64609484 -134.71173291 121.64609484 -142.5625 122.25 C-143.42359375 122.33636719 -144.2846875 122.42273438 -145.171875 122.51171875 C-149.80759666 122.79362074 -153.52724077 123.01362808 -157.1875 119.875 C-160.49564948 115.7997434 -160.89594566 111.36024864 -160.5625 106.25 C-159.40766784 100.35533499 -156.61774617 95.08594945 -153.84375 89.8046875 C-152.87517917 87.87345177 -151.99078971 85.89968978 -151.1484375 83.91015625 C-148.36257366 77.48071187 -144.94499213 71.38152627 -141.5625 65.25 C-140.84126953 63.94095703 -140.84126953 63.94095703 -140.10546875 62.60546875 C-137.7926965 58.64805846 -135.93855423 55.84129245 -131.5625 54.25 C-127.25253131 53.70835223 -123.80755869 53.52118516 -120 55.75 C-119.525625 56.245 -119.05125 56.74 -118.5625 57.25 C-119.59134263 61.159602 -121.14043737 64.34094678 -123.25 67.75 C-129.2182018 77.43013219 -134.03732579 87.82684591 -138.5625 98.25 C-138.94535156 99.11882812 -139.32820312 99.98765625 -139.72265625 100.8828125 C-140.73448705 103.73476349 -140.38249042 105.38003353 -139.5625 108.25 C-133.69634793 107.90493223 -130.58474451 106.21814194 -126.5 102.1875 C-126.00951172 101.73439453 -125.51902344 101.28128906 -125.01367188 100.81445312 C-121.00206932 97.00316713 -117.79260251 92.72680875 -114.5625 88.25 C-113.59914242 86.93901078 -112.6343116 85.6291028 -111.66796875 84.3203125 C-111.19157959 83.67489502 -110.71519043 83.02947754 -110.22436523 82.36450195 C-105.55395109 76.06226568 -100.82177931 70.04511034 -95.40234375 64.36328125 C-93.45533043 62.12690289 -92.04096634 59.81381446 -90.5625 57.25 C-89 55.4375 -89 55.4375 -87.5625 54.25 C-86.9025 54.25 -86.2425 54.25 -85.5625 54.25 C-85.5625 53.59 -85.5625 52.93 -85.5625 52.25 C-81.02486032 49.98118016 -77.54260142 49.77570463 -72.5625 50.25 C-70.0625 51.9375 -70.0625 51.9375 -68.5625 54.25 C-68.3125 57 -68.3125 57 -68.5625 59.25 C-70.8725 60.24 -73.1825 61.23 -75.5625 62.25 C-75.5625 75.12 -75.5625 87.99 -75.5625 101.25 C-63.37270745 90.58393152 -57.06722133 82.03011438 -51.80078125 66.78515625 C-48.20644658 56.52372761 -43.49251206 46.88327099 -38.56201172 37.21679688 C-36.87808227 33.90323175 -35.22178527 30.57596157 -33.5625 27.25 C-32.9025 27.25 -32.2425 27.25 -31.5625 27.25 C-31.46453125 26.68023437 -31.3665625 26.11046875 -31.265625 25.5234375 C-29.90086074 21.11069972 -26.439363 17.78743026 -23.5625 14.25 C-22.77875 13.198125 -21.995 12.14625 -21.1875 11.0625 C-17.74929902 7.37871324 -13.87976409 4.8140996 -9.5625 2.25 C-8.92570313 1.8684375 -8.28890625 1.486875 -7.6328125 1.09375 C-4.99473389 0.01860853 -2.8419528 -0.01546641 0 0 Z M-3.5625 9.25 C-3.5625 9.91 -3.5625 10.57 -3.5625 11.25 C-4.14386719 11.46140625 -4.72523438 11.6728125 -5.32421875 11.890625 C-16.02595898 18.39011121 -22.87341203 40.44929175 -27.5625 51.25 C-27.95824219 52.11496094 -28.35398437 52.97992188 -28.76171875 53.87109375 C-29.86293455 56.35262897 -29.86293455 56.35262897 -28.5625 59.25 C-27.55656757 58.1303014 -26.5579151 57.0040588 -25.5625 55.875 C-25.005625 55.24851563 -24.44875 54.62203125 -23.875 53.9765625 C-22.36077513 52.34610167 -22.36077513 52.34610167 -22.5625 50.25 C-21.9025 50.25 -21.2425 50.25 -20.5625 50.25 C-19.1551429 48.45137336 -17.83877172 46.58139607 -16.5625 44.6875 C-16.17239746 44.1104834 -15.78229492 43.5334668 -15.38037109 42.93896484 C-14.54197115 41.6964847 -13.70663555 40.45193251 -12.87402344 39.20556641 C-11.54612973 37.22559087 -10.20067811 35.25853238 -8.8515625 33.29296875 C-7.96300859 31.9873418 -7.07497561 30.68136015 -6.1875 29.375 C-5.77113281 28.76970459 -5.35476563 28.16440918 -4.92578125 27.54077148 C-1.35882451 22.23753756 2.03982887 16.87561756 1.4375 10.25 C-0.2125 9.92 -1.8625 9.59 -3.5625 9.25 Z M60 64.6875 C57.94081318 68.06456639 58.13368884 70.22274127 58.765625 74.05859375 C59.83396315 77.54311528 61.50413856 79.16405409 64.4375 81.25 C67.61900892 82.12989974 67.61900892 82.12989974 70.4375 82.25 C71.33049283 78.90127689 71.58561036 75.6364642 71.6875 72.1875 C71.71328125 71.35089844 71.7390625 70.51429687 71.765625 69.65234375 C71.36338721 66.70738847 70.49238194 65.37225512 68.4375 63.25 C64.87379033 62.64341112 63.11991626 62.84754938 60 64.6875 Z M-93.5625 72.25 C-101.82013503 81.76102606 -108.64497747 92.75164227 -115.5625 103.25 C-112.9225 102.59 -110.2825 101.93 -107.5625 101.25 C-107.2325 104.22 -106.9025 107.19 -106.5625 110.25 C-104.13870326 111.39457068 -102.20267887 112.25 -99.5 112.25 C-96.39498019 110.64740913 -94.94170796 108.35016657 -93.5625 105.25 C-90.46800452 94.47142023 -91.19980562 83.24889036 -92.5625 72.25 C-92.8925 72.25 -93.2225 72.25 -93.5625 72.25 Z M45.4375 77.25 C38.88801125 84.82869412 34.60745067 95.22291049 34.4375 105.25 C35.72744793 108.66974919 35.72744793 108.66974919 37.4375 111.25 C44.32078165 111.86457872 48.02209617 110.49829094 53.4375 106.25 C56.14598923 103.87494782 56.14598923 103.87494782 58.4375 101.25 C58.89253906 100.75242187 59.34757812 100.25484375 59.81640625 99.7421875 C62.27010822 96.95992714 63.72092882 94.87179997 64.4375 91.25 C63.56738281 91.04697266 63.56738281 91.04697266 62.6796875 90.83984375 C56.42350115 89.1157792 52.9988213 86.67955543 49.4375 81.25 C48.7477092 79.9284816 48.0743798 78.5978154 47.4375 77.25 C46.7775 77.25 46.1175 77.25 45.4375 77.25 Z " fill="#F6F4E8" transform="translate(667.5625,21.75)"/>
<path d="M0 0 C3.47060168 2.06759249 5.77725393 4.10944433 7 8 C8.45835486 16.75012918 2.9755857 24.30445591 -1.89453125 31.15625 C-6.2764121 37.13888924 -10.63628992 42.85187312 -16 48 C-17.18529297 49.20269531 -17.18529297 49.20269531 -18.39453125 50.4296875 C-22.97738573 55.06436747 -27.6093693 59.5296086 -32.6015625 63.72265625 C-33.06304687 64.14417969 -33.52453125 64.56570312 -34 65 C-34 65.33 -34 65.66 -34 66 C-33.27554688 65.59007813 -32.55109375 65.18015625 -31.8046875 64.7578125 C-23.3682092 60.05588193 -16.80607081 56.99971518 -7 58 C-3.92534195 59.0466921 -2.66942541 59.91979082 -0.96875 62.6640625 C1.94586761 68.97069198 0.49246613 73.75782724 -1.71875 80.04296875 C-3.51420878 84.47342954 -5.86656255 88.43656045 -8.39648438 92.47387695 C-12.38895715 98.85532738 -15.43857195 104.30300254 -16 112 C-13.68007138 112.83292592 -12.50979084 113.22595533 -10.2109375 112.20703125 C-3.79337092 107.33241153 1.05969276 101.30205859 6 95 C6.680625 94.18015625 7.36125 93.3603125 8.0625 92.515625 C12.80791066 86.5073228 16.25294933 79.96659656 19.625 73.125 C20.08777344 72.20855713 20.55054688 71.29211426 21.02734375 70.34790039 C21.44371094 69.47254639 21.86007813 68.59719238 22.2890625 67.6953125 C22.66756348 66.91172363 23.04606445 66.12813477 23.43603516 65.32080078 C24.17763288 62.2690138 23.27547395 60.80718405 22 58 C22.31040561 54.1199299 22.8196925 52.27046125 25 49 C25.66 49 26.32 49 27 49 C27 48.34 27 47.68 27 47 C32.13114754 45.28961749 32.13114754 45.28961749 35 45 C37.5625 46.4375 37.5625 46.4375 39 49 C38.75 52.75 38.75 52.75 38 56 C38.556875 56.23074219 39.11375 56.46148437 39.6875 56.69921875 C53.88292159 62.76584318 53.88292159 62.76584318 56 67 C56.203125 69.13671875 56.203125 69.13671875 56.25 71.6875 C56.28867187 72.93080078 56.28867187 72.93080078 56.328125 74.19921875 C55.46924214 81.53039744 50.75025067 88.32285097 47.22851562 94.68359375 C44.16280167 100.34416075 42 105.44182231 42 112 C44.09495303 113.06043651 44.09495303 113.06043651 47 113 C53.56667765 109.64797208 57.82309496 103.87790709 62 98 C62.61101562 97.15695313 63.22203125 96.31390625 63.8515625 95.4453125 C68.4089183 89.06501438 72.27171518 82.44898822 75.8918457 75.50634766 C85.25974936 57.58008355 85.25974936 57.58008355 90 56 C98.4 55.6 98.4 55.6 102 58 C101.73505845 62.23906486 101.19478073 65.0208411 98.79296875 68.546875 C95.55296461 73.56021474 93.04015934 78.85642008 90.5 84.25 C90.01877686 85.26690918 89.53755371 86.28381836 89.04174805 87.33154297 C82.41984654 99.64603018 82.41984654 99.64603018 80 113 C84.7897321 113.23428313 84.7897321 113.23428313 89 111 C89.99 111 90.98 111 92 111 C92.33 110.01 92.66 109.02 93 108 C94.70703125 106.38671875 94.70703125 106.38671875 96.8125 104.6875 C99.44161791 102.47697153 101.55593592 100.48130244 103.375 97.5625 C103.91125 96.716875 104.4475 95.87125 105 95 C105.66 95 106.32 95 107 95 C107.2475 94.195625 107.495 93.39125 107.75 92.5625 C109 90 109 90 111 89.0625 C111.66 89.041875 112.32 89.02125 113 89 C113.66 89.66 114.32 90.32 115 91 C114.78399701 96.0832704 112.96106926 98.9311081 109.875 102.875 C109.46757568 103.39602295 109.06015137 103.9170459 108.64038086 104.45385742 C107.43894245 105.97878718 106.21978 107.48970143 105 109 C104.40574219 109.76183594 103.81148437 110.52367187 103.19921875 111.30859375 C96.76747706 119.18325601 88.16892439 125.57444261 78.0078125 127.34765625 C73.15277523 127.71603456 69.69424259 126.36805438 65.69921875 123.64453125 C62.79424673 120.83305258 62.0458558 117.85659327 61 114 C60.34644531 114.58007812 60.34644531 114.58007812 59.6796875 115.171875 C51.32966943 122.47362241 44.38555432 126.56106702 33.109375 126.25 C28.73575356 125.73164487 25.95726991 124.11681489 23.125 120.8125 C20.29618433 113.74046082 22.34262665 106.81952439 25 100 C26.99260614 95.86151032 29.38834052 91.98552477 31.80859375 88.0859375 C35.50045504 82.02238153 37.9437252 77.04183202 39 70 C36.36 69.67 33.72 69.34 31 69 C30.29103897 70.27048327 29.5828878 71.54141844 28.875 72.8125 C28.41222656 73.64136719 27.94945312 74.47023438 27.47265625 75.32421875 C26.52494301 77.04619108 25.59380112 78.77744296 24.68359375 80.51953125 C18.93089552 91.45129682 11.95094809 101.60038989 4.5 111.4375 C4.07879883 111.99937012 3.65759766 112.56124023 3.22363281 113.14013672 C2.19880815 114.46670132 1.10521619 115.73962846 0 117 C-0.66 117 -1.32 117 -2 117 C-2.495 118.485 -2.495 118.485 -3 120 C-9.83602734 125.24625354 -16.48688992 127.08705867 -25 126 C-29.51368164 124.47794456 -32.33420532 122.99869203 -35 119 C-36.39304409 111.19091628 -34.28906346 105.50358717 -30.5078125 98.7265625 C-29.1083627 96.1959512 -28.06935551 93.68015686 -27 91 C-26.0409375 89.63875 -26.0409375 89.63875 -25.0625 88.25 C-21.79814701 83.10617104 -20 78.10468217 -20 72 C-23.50711671 71.09227567 -25.40025881 70.74393073 -28.78125 72.1875 C-34.48027008 75.98684672 -38.74067807 79.64854424 -43 85 C-43.66 85 -44.32 85 -45 85 C-45.38285156 86.01126953 -45.38285156 86.01126953 -45.7734375 87.04296875 C-47.22888143 90.55179377 -48.90981523 93.92606704 -50.625 97.3125 C-51.33875113 98.72775896 -52.05228611 100.14312696 -52.765625 101.55859375 C-53.13236328 102.28546387 -53.49910156 103.01233398 -53.87695312 103.76123047 C-55.00700799 106.01397028 -56.12273012 108.27328128 -57.234375 110.53515625 C-57.59321777 111.2624292 -57.95206055 111.98970215 -58.32177734 112.73901367 C-59.01260437 114.14004418 -59.7005332 115.54250827 -60.38525391 116.9465332 C-61.72510532 119.65341843 -62.84871492 121.84871492 -65 124 C-70.54810379 125.46861571 -76.25854981 126.31034866 -82 126 C-82 122.43655221 -81.01328361 120.27410239 -79.625 117 C-79.18414062 115.948125 -78.74328125 114.89625 -78.2890625 113.8125 C-77 111 -77 111 -75 108 C-74.50362388 106.61723795 -74.04830101 105.21935337 -73.625 103.8125 C-72.42236824 100.05883117 -70.94477954 96.67353241 -69.0625 93.21484375 C-67.80320004 90.5897589 -66.81331081 87.88681984 -65.80761719 85.15649414 C-64.49582811 81.65376351 -63.05893488 78.20413482 -61.625 74.75 C-61.0012951 73.24609665 -60.37759721 71.74219039 -59.75390625 70.23828125 C-59.30168701 69.14894287 -59.30168701 69.14894287 -58.84033203 68.03759766 C-58.12114929 66.29375712 -57.41650845 64.54393143 -56.71484375 62.79296875 C-49.25275609 44.30216849 -39.28451159 21.1187063 -23 9 C-22.55527344 8.52949219 -22.11054688 8.05898438 -21.65234375 7.57421875 C-15.93753653 2.12961518 -7.93976362 -1.88509478 0 0 Z M-10.375 12.875 C-11.27302144 13.89688646 -12.14515238 14.94173255 -13 16 C-13.54785156 16.65613281 -14.09570312 17.31226563 -14.66015625 17.98828125 C-20.99690423 25.82913644 -25.75851661 34.35602765 -30.3125 43.3125 C-30.6623999 43.99449463 -31.0122998 44.67648926 -31.37280273 45.37915039 C-33.12744022 48.89404782 -34.4785011 52.09253723 -35 56 C-30.09925328 52.04170457 -25.93830746 47.907869 -22 43 C-21.5973291 42.50435547 -21.1946582 42.00871094 -20.77978516 41.49804688 C-9.0407939 28.12025284 -9.0407939 28.12025284 -3 12 C-6.41279662 10.73238983 -7.44877764 10.56482445 -10.375 12.875 Z M-36 56 C-35 58 -35 58 -35 58 Z " fill="#F5F3E7" transform="translate(212,25)"/>
<path d="M0 0 C2.34549674 3.51824511 2.57991403 4.85775694 2 9 C-0.03050731 11.88201037 -1.61488003 13.66899707 -5.125 14.5078125 C-6.2696875 14.68957031 -6.2696875 14.68957031 -7.4375 14.875 C-11.8660884 15.70810079 -13.79837132 17.05165537 -16.47265625 20.64453125 C-22.45717446 29.87385217 -27.0084591 38.96432875 -30.6796875 49.33203125 C-32.24198951 53.67227263 -34.05854968 57.81841469 -36 62 C-28.59057506 60.07987463 -22.34251269 58.23634931 -16.48828125 53.171875 C-15 52 -15 52 -13 52 C-13 51.34 -13 50.68 -13 50 C-8.69767442 45.23255814 -8.69767442 45.23255814 -5 44 C-4.28424137 42.69236404 -3.62187683 41.3548031 -3 40 C-0.84524366 37.18381529 1.60789525 34.61526346 4 32 C4.77609619 31.14825195 4.77609619 31.14825195 5.56787109 30.27929688 C18.60035406 16.0110704 18.60035406 16.0110704 26 10 C26.78375 9.2575 27.5675 8.515 28.375 7.75 C36.04830438 2.63446375 45.02431143 2.1611506 54 3 C58.51701763 4.26793477 60.20534486 5.90505966 62.4375 9.875 C63.94981706 13.24815162 64.33964099 15.42762404 63 19 C60.69 19.33 58.38 19.66 56 20 C55.690625 19.360625 55.38125 18.72125 55.0625 18.0625 C52.30693741 15.30693741 50.21756819 15.09336758 46.40234375 14.83984375 C35.8155661 15.54562893 27.59323252 26.32525824 20.73828125 33.33203125 C19.59641694 34.49224929 18.45448901 35.65240471 17.3125 36.8125 C16.44141602 37.7087207 16.44141602 37.7087207 15.55273438 38.62304688 C14.07274424 40.12014673 12.54017218 41.56488731 11 43 C10.34 43 9.68 43 9 43 C8.6596875 43.86625 8.6596875 43.86625 8.3125 44.75 C6.65151778 47.59739809 4.68475439 49.12067193 2 51 C1.34 51 0.68 51 0 51 C0 51.66 0 52.32 0 53 C-2.01094641 54.57235721 -4.01157468 56.01553231 -6.125 57.4375 C-6.69476563 57.83259766 -7.26453125 58.22769531 -7.8515625 58.63476562 C-17.17170601 65 -17.17170601 65 -23 65 C-23 65.66 -23 66.32 -23 67 C-22.24847656 67.24621094 -21.49695313 67.49242188 -20.72265625 67.74609375 C-14.28327121 70.71172158 -10.42578685 78.19464769 -7.8359375 84.55859375 C-5.60682464 91.06885326 -4.18157131 97.71055105 -3.125 104.5 C-2.21587672 109.84595572 -0.31260975 114.52645872 1.87890625 119.46875 C3 122 3 122 4 125 C6.00016466 126.20882096 6.00016466 126.20882096 8 127 C8 127.66 8 128.32 8 129 C8.804375 129.1546875 8.804375 129.1546875 9.625 129.3125 C12.62390456 130.18060395 15.20914396 131.60457198 18 133 C19.98867713 133.69971973 21.98608051 134.37664397 24 135 C22.52705987 138.88320578 20.69691694 140.19687158 17 142 C8.75168905 143.2160367 1.23786259 142.89244433 -5.71875 137.96484375 C-12.68168712 131.96765647 -18.09397988 125.79219353 -21 117 C-21.40992188 115.80697266 -21.40992188 115.80697266 -21.828125 114.58984375 C-23.55769015 108.96875702 -24.34495119 103.44892683 -24.9375 97.625 C-26.24741971 83.35323085 -26.24741971 83.35323085 -34 72 C-37.63543901 70.72234735 -37.63543901 70.72234735 -41 70 C-41.185625 70.87785156 -41.185625 70.87785156 -41.375 71.7734375 C-46.90217144 94.78028861 -59.93020935 118.03549851 -80 131 C-82.93193172 132.62475965 -85.83069316 133.91560579 -89 135 C-89.63035156 135.22300781 -90.26070313 135.44601563 -90.91015625 135.67578125 C-100.21418525 138.48418425 -111.13495506 137.98265452 -120 134 C-124.50741944 130.95244626 -128.07511018 127.81278405 -130.5625 122.9375 C-131.53500324 116.40783542 -131.17562429 111.89758796 -128 106 C-126.0658182 103.77927275 -124.89848795 103.07587998 -121.96484375 102.828125 C-119.97578675 102.81409285 -117.98662477 102.90066876 -116 103 C-115.67 103.66 -115.34 104.32 -115 105 C-115.495 106.2684375 -115.495 106.2684375 -116 107.5625 C-117.28992635 111.99662184 -117.12540095 115.5407045 -116 120 C-114.75 122.75 -114.75 122.75 -112 124 C-104.01482385 125.5698645 -96.9614645 122.7597783 -90 119 C-86.24076125 116.38487739 -83.54170051 113.81255076 -81 110 C-80.34 110 -79.68 110 -79 110 C-78.89945312 109.44054687 -78.79890625 108.88109375 -78.6953125 108.3046875 C-77.85090294 105.50580187 -76.51547936 103.54525878 -74.875 101.125 C-69.76808807 93.27063237 -65.54390479 85.00126021 -62.12890625 76.28125 C-59.8804426 70.58338366 -57.28197323 65.0794097 -54.625 59.5625 C-53.94050781 58.12293945 -53.94050781 58.12293945 -53.2421875 56.65429688 C-48.79732667 47.38376551 -44.04282694 38.31341904 -38.4375 29.6875 C-37.89706055 28.83575195 -37.89706055 28.83575195 -37.34570312 27.96679688 C-34.06418699 22.87840685 -30.39196955 18.18282814 -26 14 C-25.34 13.34 -24.68 12.68 -24 12 C-46.7854916 10.89167923 -46.7854916 10.89167923 -68 18 C-69.35931641 18.70189453 -69.35931641 18.70189453 -70.74609375 19.41796875 C-76.77235601 22.95060525 -81.42157128 28.22621558 -83.640625 34.9375 C-84.83421653 41.78767748 -84.74894593 48.0016865 -81 54 C-80.67 54.99 -80.34 55.98 -80 57 C-84.71190102 57.37695208 -88.07370593 57.46314703 -92.375 55.3125 C-97.35626177 50.92424558 -98.79504646 46.48432332 -99.84765625 40.046875 C-100.29876152 31.02476953 -96.64971805 21.3193029 -90.68359375 14.57421875 C-78.87807937 3.53565194 -64.19664499 1.33395609 -48.625 1.6875 C-46.67400391 1.70200195 -46.67400391 1.70200195 -44.68359375 1.71679688 C-38.36758191 1.79083779 -32.24773166 2.09535107 -26 3 C-18.56726127 3.57979164 -12.8922242 3.11165098 -6.15625 -0.22265625 C-3.59111848 -1.14740475 -2.48353229 -1.08917624 0 0 Z " fill="#F7F5E8" transform="translate(494,16)"/>
<path d="M0 0 C5.23020615 4.08426211 10.52372898 9.36004389 11.421875 16.1796875 C11.53947538 24.49403463 10.07815625 28.35834157 4.3984375 34.56640625 C0.12076921 37.22986009 -3.01375437 37.11893706 -7.9140625 36.62890625 C-7.9140625 31.78280687 -6.57487229 30.58210937 -3.9140625 26.62890625 C-1.2882715 21.43026358 -0.24590708 17.41184503 -1.9140625 11.62890625 C-4.6363542 7.89835837 -7.46619991 6.65533608 -11.9140625 5.62890625 C-18.27435793 4.90383257 -22.56941114 5.99416995 -27.69921875 10.03515625 C-34.26886942 15.94923668 -37.56012587 23.94786591 -38.140625 32.73828125 C-37.37451602 42.51277507 -33.04544869 51.93463989 -28.52734375 60.4921875 C-25.32349244 66.72146742 -22.6322542 73.17663303 -19.9140625 79.62890625 C-19.54796875 80.428125 -19.181875 81.22734375 -18.8046875 82.05078125 C-15.06459141 91.154034 -15.44132017 103.06491669 -19.0390625 112.12890625 C-19.94688047 113.98777161 -20.90353298 115.82381789 -21.9140625 117.62890625 C-22.37167969 118.45003906 -22.82929688 119.27117187 -23.30078125 120.1171875 C-30.54704629 131.92959215 -42.40537912 138.56228839 -55.4140625 142.56640625 C-71.37158664 145.99352553 -87.93774127 144.71858322 -102.2890625 136.87890625 C-110.2430105 131.71400495 -115.696644 124.94468813 -117.9140625 115.62890625 C-119.15442723 105.11777422 -117.05703522 97.88325191 -111.0390625 89.37890625 C-105.26220682 82.05961556 -98.25046353 77.1004931 -88.9140625 75.62890625 C-80.72616951 74.85165945 -72.18518903 75.80640817 -65.4765625 80.94140625 C-62.06881526 84.51538507 -60.05220467 87.51072638 -59.7265625 92.50390625 C-59.819375 93.55578125 -59.819375 93.55578125 -59.9140625 94.62890625 C-62.5540625 94.95890625 -65.1940625 95.28890625 -67.9140625 95.62890625 C-71.9140625 89.87890625 -71.9140625 89.87890625 -71.9140625 87.62890625 C-73.9762673 87.57455825 -76.03889066 87.53595664 -78.1015625 87.50390625 C-79.25011719 87.48070313 -80.39867187 87.4575 -81.58203125 87.43359375 C-85.92364727 87.68808472 -88.62628486 88.45984158 -91.86328125 91.3984375 C-92.43691406 92.07261719 -93.01054688 92.74679688 -93.6015625 93.44140625 C-94.18292969 94.10785156 -94.76429687 94.77429688 -95.36328125 95.4609375 C-99.81785663 101.68836656 -99.5148578 108.23730349 -98.9140625 115.62890625 C-97.8873898 119.76372506 -96.08374867 122.76109495 -92.9140625 125.62890625 C-92.9140625 126.28890625 -92.9140625 126.94890625 -92.9140625 127.62890625 C-91.2510041 128.30452373 -89.58311645 128.96823906 -87.9140625 129.62890625 C-86.8003125 130.16515625 -85.6865625 130.70140625 -84.5390625 131.25390625 C-76.39711131 134.28203231 -65.92445129 133.8451583 -57.8984375 130.6015625 C-50.21838287 126.83712627 -44.00545024 122.71448576 -40.65625 114.5703125 C-37.62905596 105.41463821 -37.27003673 97.79042614 -39.4765625 88.50390625 C-39.64929688 87.77107422 -39.82203125 87.03824219 -40 86.28320312 C-41.90996839 78.77975588 -45.23386751 72.41184175 -48.9140625 65.62890625 C-50.34671778 62.66559647 -51.64030724 59.66295848 -52.9140625 56.62890625 C-53.28660156 55.86191406 -53.65914063 55.09492187 -54.04296875 54.3046875 C-58.13943158 44.98416405 -58.84345248 33.27914406 -55.99609375 23.46484375 C-54.81132404 20.98794656 -53.51638707 18.85551312 -51.9140625 16.62890625 C-51.38683594 15.84644531 -50.85960938 15.06398438 -50.31640625 14.2578125 C-47.57853406 10.37635733 -47.57853406 10.37635733 -45.9140625 8.62890625 C-45.2540625 8.62890625 -44.5940625 8.62890625 -43.9140625 8.62890625 C-43.9140625 7.96890625 -43.9140625 7.30890625 -43.9140625 6.62890625 C-40.44464812 3.98220227 -36.68677009 1.81363772 -32.9140625 -0.37109375 C-31.96660156 -0.92796875 -31.96660156 -0.92796875 -31 -1.49609375 C-22.08307512 -5.73061515 -8.3897021 -5.02523112 0 0 Z " fill="#F3F1E5" transform="translate(151.9140625,15.37109375)"/>
<path d="M0 0 C6.74511719 -0.23388672 6.74511719 -0.23388672 9.0390625 1.87109375 C9.56242187 2.71800781 10.08578125 3.56492188 10.625 4.4375 C11.19605469 5.34113281 11.76710938 6.24476563 12.35546875 7.17578125 C14.6331113 11.08726714 16.88187494 14.99970539 19 19 C19.06058594 17.71222656 19.12117188 16.42445313 19.18359375 15.09765625 C19.26798247 13.41925841 19.3526313 11.74087364 19.4375 10.0625 C19.47681641 9.21236328 19.51613281 8.36222656 19.55664062 7.48632812 C19.59853516 6.67744141 19.64042969 5.86855469 19.68359375 5.03515625 C19.72025146 4.2862915 19.75690918 3.53742676 19.79467773 2.76586914 C20 1 20 1 21 0 C23.5 -0.125 23.5 -0.125 26 0 C27 1 27 1 27.11352539 4.05102539 C27.11336634 5.39991271 27.10767612 6.74880614 27.09765625 8.09765625 C27.0962413 8.80651474 27.09482635 9.51537323 27.09336853 10.24571228 C27.08775443 12.51801712 27.07519963 14.79022475 27.0625 17.0625 C27.05748681 18.59960796 27.05292359 20.13671745 27.04882812 21.67382812 C27.03778042 25.44925642 27.02050641 29.22461171 27 33 C24.36 33 21.72 33 19 33 C18.896875 32.360625 18.79375 31.72125 18.6875 31.0625 C18.460625 30.381875 18.23375 29.70125 18 29 C17.01 28.67 16.02 28.34 15 28 C13.61328125 25.71484375 13.61328125 25.71484375 12.3125 22.9375 C11.87550781 22.01839844 11.43851562 21.09929687 10.98828125 20.15234375 C10.66214844 19.44207031 10.33601563 18.73179687 10 18 C9.34 18.33 8.68 18.66 8 19 C7.52998967 22.27555608 7.52998967 22.27555608 7.375 26.0625 C7.30023438 27.35285156 7.22546875 28.64320313 7.1484375 29.97265625 C7.09945313 30.97167969 7.05046875 31.97070312 7 33 C4.69 33 2.38 33 0 33 C-1.17666109 29.47001672 -1.02013769 26.86362584 -0.87890625 23.14453125 C-0.85529526 22.48289474 -0.83168427 21.82125824 -0.80735779 21.13957214 C-0.73090143 19.03031998 -0.64680043 16.9214518 -0.5625 14.8125 C-0.5092612 13.38087804 -0.45652093 11.94923746 -0.40429688 10.51757812 C-0.27531118 7.01148424 -0.13946876 3.50569429 0 0 Z " fill="#F2F0E4" transform="translate(422,173)"/>
<path d="M0 0 C1.8357153 1.91199155 3.38903272 3.88272871 5 6 C3.8125 7.5625 3.8125 7.5625 2 9 C-1.15319678 8.83404227 -2.79473387 8.14584699 -5.375 6.3125 C-8.07251244 4.64820929 -8.07251244 4.64820929 -11.6875 5.5625 C-14.97909577 6.64503299 -14.97909577 6.64503299 -16.19921875 8.73046875 C-17.18394984 11.52134078 -17.1953082 13.79705553 -17.125 16.75 C-17.09792969 18.22726563 -17.09792969 18.22726563 -17.0703125 19.734375 C-17.04710937 20.48203125 -17.02390625 21.2296875 -17 22 C-12.73949493 24.39772819 -9.83952815 24.39028453 -5 24 C-4.34 23.01 -3.68 22.02 -3 21 C-5.31 20.67 -7.62 20.34 -10 20 C-10 18.35 -10 16.7 -10 15 C-7.13366205 13.56683102 -4.62764499 13.86799639 -1.4375 13.875 C0.32787109 13.87113281 0.32787109 13.87113281 2.12890625 13.8671875 C5 14 5 14 6 15 C6.55910632 20.7028845 5.61852911 23.57735331 2 28 C-2.35075748 31.82339294 -6.19185694 32.23900717 -11.7890625 32.1484375 C-16.15107626 31.85558145 -18.40019668 30.51610984 -21.6875 27.6875 C-25.82836814 22.87513973 -26.45028951 18.79064064 -26.3203125 12.5703125 C-25.69363184 7.54158235 -23.62235476 3.57165617 -20 0.0625 C-14.22612059 -3.00487344 -5.63962825 -3.44643948 0 0 Z " fill="#F1EFE3" transform="translate(405,175)"/>
<path d="M0 0 C4.62361631 2.62911516 7.08946926 6.00042099 9.1875 10.8125 C10.22463144 17.22824335 8.89148072 22.51424926 5.1875 27.8125 C0.45872546 32.42305518 -3.18545777 33.09581739 -9.70703125 33.046875 C-13.11919154 32.66704269 -15.75579806 31.34085097 -18.8125 29.8125 C-18.8125 29.1525 -18.8125 28.4925 -18.8125 27.8125 C-19.43125 27.565 -20.05 27.3175 -20.6875 27.0625 C-23.28533706 25.53436055 -23.72839409 24.59884238 -24.8125 21.8125 C-25.47610439 16.27217497 -25.56823895 11.37995856 -23.125 6.3125 C-16.2541518 -1.115444 -9.6689712 -3.01164677 0 0 Z M-14.8125 7.8125 C-17.78097842 12.26521763 -17.43871351 16.5914449 -16.8125 21.8125 C-14.79372186 25.07360315 -13.49362308 25.5951203 -9.875 26.75 C-5.53479218 26.83857567 -3.47145858 25.15412752 -0.19921875 22.5078125 C2.13345066 19.65604201 1.71556752 16.81142056 1.6015625 13.26171875 C1.3199517 10.54006975 1.3199517 10.54006975 -0.9375 7.75 C-6.18182259 4.2157826 -9.74601732 3.87190236 -14.8125 7.8125 Z " fill="#F2F0E4" transform="translate(667.8125,174.1875)"/>
<path d="M0 0 C5.8614249 2.22734146 9.40628089 4.34728857 12.125 10.1875 C13.47470727 21.0260584 13.47470727 21.0260584 10.46875 25.83984375 C6.36369228 29.95174323 3.28765645 32.3875712 -2.6171875 32.578125 C-4.32861778 32.55552464 -6.03971081 32.50394754 -7.75 32.4375 C-10.76125 32.355 -13.7725 32.2725 -16.875 32.1875 C-16.875 21.6275 -16.875 11.0675 -16.875 0.1875 C-12.00444295 -2.24777853 -5.14436875 -1.07865796 0 0 Z M-8.875 6.1875 C-8.875 12.7875 -8.875 19.3875 -8.875 26.1875 C-1.41807954 26.9048806 -1.41807954 26.9048806 2.0625 24.3125 C4.7160687 21.57852013 5.07536258 20.71365669 5.4375 16.875 C5.0725203 12.56823959 4.18516472 11.16266014 1.125 8.1875 C-2.49075236 5.65647334 -3.96053796 6.1875 -8.875 6.1875 Z " fill="#F0EEE2" transform="translate(270.875,173.8125)"/>
<path d="M0 0 C4.23102248 1.72694795 6.87960845 3.90395099 9.875 7.3125 C11.95108774 12.44808547 12.04307136 18.06897982 10.40625 23.37890625 C8.13717648 27.90727281 4.68087096 30.46060636 0.0625 32.25 C-3.11215407 32.69772965 -6.1777378 32.63291295 -9.375 32.5 C-13.6134375 32.37625 -13.6134375 32.37625 -17.9375 32.25 C-17.9375 21.69 -17.9375 11.13 -17.9375 0.25 C-13.01753409 -2.20998296 -5.25793123 -1.31448281 0 0 Z M-10.9375 6.25 C-10.96446009 9.0208983 -10.98431952 11.7915345 -11 14.5625 C-11.00837891 15.34818359 -11.01675781 16.13386719 -11.02539062 16.94335938 C-11.02861328 17.70068359 -11.03183594 18.45800781 -11.03515625 19.23828125 C-11.04039307 19.93477783 -11.04562988 20.63127441 -11.05102539 21.34887695 C-11.00645991 23.47497968 -11.00645991 23.47497968 -9.9375 26.25 C-6.34948575 26.46105966 -3.53041486 26.46081417 -0.125 25.25 C3.03785998 22.35824231 3.73554145 19.46058819 4.0625 15.25 C3.7580538 11.91782307 3.7580538 11.91782307 2.0625 9.25 C-2.33301367 6.18336256 -5.70266671 6.1382242 -10.9375 6.25 Z " fill="#F2F0E3" transform="translate(603.9375,173.75)"/>
<path d="M0 0 C2.00720923 0.28674418 4.0085944 0.61866701 6 1 C6.02505615 1.68102783 6.0501123 2.36205566 6.07592773 3.0637207 C6.19190952 6.14683755 6.31462616 9.22965046 6.4375 12.3125 C6.47681641 13.38435547 6.51613281 14.45621094 6.55664062 15.56054688 C6.61948242 17.10258789 6.61948242 17.10258789 6.68359375 18.67578125 C6.72025146 19.62364502 6.75690918 20.57150879 6.79467773 21.5480957 C6.91430187 24.136171 6.91430187 24.136171 8 27 C10.3431213 26.74438677 12.67843403 26.40729228 15 26 C16.25838557 23.48322887 16.20818973 21.58706712 16.31640625 18.7734375 C16.35830078 17.7421875 16.40019531 16.7109375 16.44335938 15.6484375 C16.48267578 14.56820312 16.52199219 13.48796875 16.5625 12.375 C16.60568359 11.28703125 16.64886719 10.1990625 16.69335938 9.078125 C16.7996453 6.3855483 16.90168057 3.69287747 17 1 C22.75 -0.125 22.75 -0.125 25 1 C25.05859857 4.35409194 25.09379582 7.70805017 25.125 11.0625 C25.14175781 12.00544922 25.15851562 12.94839844 25.17578125 13.91992188 C25.21372771 19.36523938 24.81252643 23.85499388 23 29 C22.34 29 21.68 29 21 29 C20.7525 29.639375 20.505 30.27875 20.25 30.9375 C19 33 19 33 17.3125 33.75 C12.17020504 34.30592378 7.62567794 34.58493767 3 32 C2.67 31.01 2.34 30.02 2 29 C1.34 29 0.68 29 0 29 C-1.05259482 25.84221554 -1.12916606 23.58805121 -1.1328125 20.2734375 C-1.13410156 19.1596875 -1.13539063 18.0459375 -1.13671875 16.8984375 C-1.13285156 15.73570312 -1.12898437 14.57296875 -1.125 13.375 C-1.12886719 12.20453125 -1.13273438 11.0340625 -1.13671875 9.828125 C-1.13542969 8.71695313 -1.13414062 7.60578125 -1.1328125 6.4609375 C-1.13168457 5.43790527 -1.13055664 4.41487305 -1.12939453 3.36083984 C-1 1 -1 1 0 0 Z " fill="#F0EEE1" transform="translate(549,173)"/>
<path d="M0 0 C2.91927604 1.3961755 4.72202996 2.72202996 7 5 C7 5.99 7 6.98 7 8 C2.81006189 8.95225866 0.71215849 9.17609291 -3 7 C-3.99 7 -4.98 7 -6 7 C-6.33 8.65 -6.66 10.3 -7 12 C-6.01 12.04125 -5.02 12.0825 -4 12.125 C0.91962431 12.79768332 4.42111003 15.70916703 8 19 C9.56935594 22.13871188 9.35201103 24.53855822 9 28 C6.45862841 31.15954305 4.85377341 32.71540886 1 34 C-4.42910777 34.52867716 -8.57178697 34.51652211 -13 31 C-13.61875 30.54625 -14.2375 30.0925 -14.875 29.625 C-16 28 -16 28 -15.6875 25.3125 C-15.3471875 24.1678125 -15.3471875 24.1678125 -15 23 C-13.35 23 -11.7 23 -10 23 C-9.34 24.32 -8.68 25.64 -8 27 C-5.69 27 -3.38 27 -1 27 C-0.34 25.35 0.32 23.7 1 22 C-1.31 21.67 -3.62 21.34 -6 21 C-6 20.34 -6 19.68 -6 19 C-6.7425 18.9175 -7.485 18.835 -8.25 18.75 C-11.64296341 17.82464634 -12.88475622 16.79514357 -15 14 C-16.1283728 10.46443189 -16.31524936 8.75309569 -14.875 5.3125 C-10.7333357 0.20444737 -6.33922416 -0.97526526 0 0 Z " fill="#F1EFE3" transform="translate(495,173)"/>
<path d="M0 0 C1.2694043 -0.00193359 1.2694043 -0.00193359 2.56445312 -0.00390625 C3.44939453 -0.00003906 4.33433594 0.00382813 5.24609375 0.0078125 C6.13490234 0.00394531 7.02371094 0.00007812 7.93945312 -0.00390625 C8.78443359 -0.00261719 9.62941406 -0.00132812 10.5 0 C11.66704468 0.00169189 11.66704468 0.00169189 12.85766602 0.00341797 C14.68359375 0.1328125 14.68359375 0.1328125 15.68359375 1.1328125 C15.72440158 3.13239614 15.72613731 5.13326504 15.68359375 7.1328125 C14.52730469 7.22369141 14.52730469 7.22369141 13.34765625 7.31640625 C12.34476562 7.40019531 11.341875 7.48398438 10.30859375 7.5703125 C8.81199219 7.69212891 8.81199219 7.69212891 7.28515625 7.81640625 C4.70431762 7.98246876 4.70431762 7.98246876 2.68359375 9.1328125 C2.02804256 11.66014485 2.02804256 11.66014485 1.68359375 14.1328125 C2.46605469 14.12121094 3.24851562 14.10960937 4.0546875 14.09765625 C5.06660156 14.08863281 6.07851563 14.07960937 7.12109375 14.0703125 C8.13042969 14.05871094 9.13976562 14.04710937 10.1796875 14.03515625 C12.68359375 14.1328125 12.68359375 14.1328125 13.68359375 15.1328125 C13.3962932 17.47225986 13.06422596 19.8067268 12.68359375 22.1328125 C9.05359375 22.1328125 5.42359375 22.1328125 1.68359375 22.1328125 C1.68359375 23.7828125 1.68359375 25.4328125 1.68359375 27.1328125 C3.07384766 27.11541016 3.07384766 27.11541016 4.4921875 27.09765625 C5.68972656 27.08863281 6.88726562 27.07960937 8.12109375 27.0703125 C9.31605469 27.05871094 10.51101563 27.04710937 11.7421875 27.03515625 C14.68359375 27.1328125 14.68359375 27.1328125 15.68359375 28.1328125 C15.68359375 29.7828125 15.68359375 31.4328125 15.68359375 33.1328125 C8.75359375 33.1328125 1.82359375 33.1328125 -5.31640625 33.1328125 C-5.64640625 22.5728125 -5.97640625 12.0128125 -6.31640625 1.1328125 C-3.98476789 -0.03300668 -2.59487143 0.00375641 0 0 Z " fill="#F0EFE2" transform="translate(300.31640625,172.8671875)"/>
<path d="M0 0 C3.18425322 1.35500137 4.53956902 2.23261503 6.3125 5.1875 C6.539375 5.785625 6.76625 6.38375 7 7 C6.34 7.66 5.68 8.32 5 9 C1.04407344 8.68603757 -2.24483454 8.25172182 -6 7 C-6.33 8.32 -6.66 9.64 -7 11 C-6.33613281 11.23074219 -5.67226563 11.46148437 -4.98828125 11.69921875 C4.80709534 15.31707317 4.80709534 15.31707317 8 20 C8.69147021 22.83502784 8.72607072 25.1700393 8 28 C5.46546343 31.21954645 3.88702695 32.70432435 0 34 C-9.17470665 34.44393742 -9.17470665 34.44393742 -13 32 C-14.5921965 29.739603 -15.75610969 27.48778061 -17 25 C-14 23 -14 23 -11.4375 23.1875 C-9 24 -9 24 -7 27 C-3.535 26.505 -3.535 26.505 0 26 C0 25.01 0 24.02 0 23 C-1.11375 22.566875 -1.11375 22.566875 -2.25 22.125 C-13.17142857 17.65714286 -13.17142857 17.65714286 -15 14 C-15.51968957 9.5868984 -15.85380637 6.13840849 -13.125 2.5 C-8.83663368 -0.52708211 -5.1387555 -0.4978725 0 0 Z " fill="#F1EFE2" transform="translate(342,173)"/>
<path d="M0 0 C2.80072925 2.36311531 2.96411342 3.72316067 3.4375 7.375 C2.77797673 12.83962136 0.44158198 15.73003492 -3.625 19.3125 C-7.59686539 22.13461488 -10.08572714 22.50837305 -15 22 C-18.15241553 19.33257147 -18.9069473 17.71783511 -19.4375 13.625 C-18.78584919 8.22560759 -17.48657591 4.41224711 -13.5 0.625 C-8.57019147 -2.57937554 -5.2599194 -2.01630244 0 0 Z " fill="#F6F4E7" transform="translate(559,43)"/>
<path d="M0 0 C2.58166516 0.58731826 3.73612994 1.16369028 5.57421875 3.04296875 C7.52534566 6.8106621 7.91959873 8.53050432 7.09765625 12.5859375 C5.52369675 16.9186502 2.60189886 19.58361603 -0.98828125 22.41796875 C-4.41265039 23.88555553 -6.92539298 23.95273411 -10.61328125 23.54296875 C-12.71686506 22.00034062 -13.45382284 20.86188558 -14.61328125 18.54296875 C-14.93459228 12.00964452 -14.47672706 8.16343942 -10.61328125 2.73046875 C-6.89392132 0.01843547 -4.52518841 -0.250272 0 0 Z " fill="#F3F1E4" transform="translate(858.61328125,41.45703125)"/>
<path d="M0 0 C3.45152051 1.90935177 4.67861815 3.09611353 6 6.8125 C6 11.46223058 4.82075278 15.11629566 1.53125 18.51953125 C-1.81629943 21.36658922 -3.99946338 22.90735772 -8.375 23.3125 C-12 23 -12 23 -14.4375 21.5625 C-16.78892743 17.70615901 -16.84895321 14.39585092 -16 10 C-12.68448266 2.57172261 -8.55955245 -1.33482299 0 0 Z " fill="#F8F6E9" transform="translate(321,47)"/>
<path d="M0 0 C1.61358398 -0.01836914 1.61358398 -0.01836914 3.25976562 -0.03710938 C4.28650391 -0.03904297 5.31324219 -0.04097656 6.37109375 -0.04296875 C7.79119751 -0.04913208 7.79119751 -0.04913208 9.23999023 -0.05541992 C11.5625 0.1875 11.5625 0.1875 13.5625 2.1875 C13.1875 4.8125 13.1875 4.8125 12.5625 7.1875 C9.5925 7.1875 6.6225 7.1875 3.5625 7.1875 C3.5625 15.7675 3.5625 24.3475 3.5625 33.1875 C1.2525 33.1875 -1.0575 33.1875 -3.4375 33.1875 C-3.4375 25.2675 -3.4375 17.3475 -3.4375 9.1875 C-7.8925 8.1975 -7.8925 8.1975 -12.4375 7.1875 C-12.48004356 5.18795254 -12.47830783 3.18708364 -12.4375 1.1875 C-9.96151267 -1.28848733 -3.32889842 0.0019874 0 0 Z " fill="#F0EEE1" transform="translate(524.4375,172.8125)"/>
<path d="M0 0 C1.98 0 3.96 0 6 0 C6 11.22 6 22.44 6 34 C4.02 34 2.04 34 0 34 C-1.90445326 32.09554674 -1.13058862 28.71662463 -1.1328125 26.19140625 C-1.13376923 25.50948715 -1.13472595 24.82756805 -1.13571167 24.12498474 C-1.13639339 22.67992053 -1.13453969 21.23485328 -1.13037109 19.78979492 C-1.12503084 17.57528807 -1.13031205 15.36098481 -1.13671875 13.14648438 C-1.13605781 11.74479122 -1.13477631 10.34309819 -1.1328125 8.94140625 C-1.13168457 7.65951416 -1.13055664 6.37762207 -1.12939453 5.05688477 C-1 2 -1 2 0 0 Z " fill="#F2F0E4" transform="translate(362,173)"/>
<path d="M0 0 C2.5625 0.1875 2.5625 0.1875 4.5625 2.1875 C4.69775391 5.26025391 4.69775391 5.26025391 4.5390625 9.1640625 C4.51403656 9.84931 4.48901062 10.5345575 4.46322632 11.24057007 C4.38097691 13.4317131 4.28440952 15.62196111 4.1875 17.8125 C4.12926528 19.2968383 4.07196189 20.78121346 4.015625 22.265625 C3.87539242 25.90673974 3.72231249 29.5471862 3.5625 33.1875 C1.2525 33.1875 -1.0575 33.1875 -3.4375 33.1875 C-3.46215392 28.64852295 -3.48033789 24.10958457 -3.49243164 19.57055664 C-3.4974714 18.02530234 -3.5043032 16.48005284 -3.51293945 14.93481445 C-3.52502076 12.71824971 -3.53073173 10.50174782 -3.53515625 8.28515625 C-3.54031754 7.5903566 -3.54547882 6.89555695 -3.55079651 6.17970276 C-3.55099277 4.5152067 -3.49939129 2.85084501 -3.4375 1.1875 C-2.4375 0.1875 -2.4375 0.1875 0 0 Z " fill="#F1EFE2" transform="translate(629.4375,172.8125)"/>
<path d="M0 0 C0.33 0.66 0.66 1.32 1 2 C0.45730469 2.47050781 -0.08539063 2.94101562 -0.64453125 3.42578125 C-1.35996094 4.04839844 -2.07539063 4.67101563 -2.8125 5.3125 C-3.52019531 5.92738281 -4.22789062 6.54226562 -4.95703125 7.17578125 C-6.70136739 8.73334335 -8.36778041 10.32658875 -10 12 C-10.66 11.67 -11.32 11.34 -12 11 C-4.68082524 2.09830097 -4.68082524 2.09830097 0 0 Z " fill="#DFDDD1" transform="translate(472,28)"/>
<path d="M0 0 C0 0.33 0 0.66 0 1 C-1.5159375 1.061875 -1.5159375 1.061875 -3.0625 1.125 C-7.85902082 1.76127317 -10.67514558 4.69535746 -14 8 C-13.12269491 5.29497597 -12.28331029 3.31599994 -10.375 1.1875 C-6.84016181 -0.5799191 -3.92581331 -0.19629067 0 0 Z " fill="#E0DED3" transform="translate(321,47)"/>
<path d="M0 0 C0.66 0.33 1.32 0.66 2 1 C1.07038578 2.15224028 0.1309875 3.29659176 -0.8125 4.4375 C-1.59560547 5.39462891 -1.59560547 5.39462891 -2.39453125 6.37109375 C-4 8 -4 8 -7 9 C-5.44499019 5.18315774 -2.96404505 2.80804268 0 0 Z " fill="#D1CFC4" transform="translate(48,97)"/>
<path d="M0 0 C2.0625 0.4375 2.0625 0.4375 4 1 C4.33 2.65 4.66 4.3 5 6 C4.34 5.01 3.68 4.02 3 3 C2.38125 3.309375 1.7625 3.61875 1.125 3.9375 C-0.25 4.625 -1.625 5.3125 -3 6 C-1.125 1.125 -1.125 1.125 0 0 Z " fill="#E1DFD4" transform="translate(322,114)"/>
<path d="M0 0 C0.66 0 1.32 0 2 0 C0.55746343 3.36591866 -1.33264727 5.51047079 -4 8 C-4.66 7.67 -5.32 7.34 -6 7 C-5.04882866 5.8274869 -4.08882991 4.66212985 -3.125 3.5 C-2.59132813 2.8503125 -2.05765625 2.200625 -1.5078125 1.53125 C-0.76144531 0.77328125 -0.76144531 0.77328125 0 0 Z " fill="#E1DFD3" transform="translate(649,30)"/>
<path d="" fill="#CBC9BF" transform="translate(0,0)"/>
<path d="" fill="#CBC9BF" transform="translate(0,0)"/>
<path d="" fill="#CBC9BF" transform="translate(0,0)"/>
<path d="" fill="#C5C4B9" transform="translate(0,0)"/>
<path d="" fill="#CBC9BF" transform="translate(0,0)"/>
<path d="" fill="#CBC9BF" transform="translate(0,0)"/>
</svg>
